<svg t="1698046219403" class="icon" viewBox="0 0 1024 1024" version="1.1" xmlns="http://www.w3.org/2000/svg" p-id="4219" width="200" height="200"><path d="M426.08 649.232l56.576 56.56L690.544 497.92l-56.56-56.56L426.08 649.232z m100.64-315.136L318.832 541.984l56.56 56.56 207.888-207.888-56.56-56.56zM957.424 58.912L502.4 31.952 25.616 508.384l488.56 488.512 477.008-476.64-33.76-461.344zM514.192 883.792L138.784 508.4 533.552 113.936 882.72 134.64l25.984 354.912-394.528 394.24z m162.896-638.752a72 72 0 1 0 101.84 101.824 72 72 0 1 0-101.84-101.824z" fill="#565D64" p-id="4220"></path></svg>